<?xml version="1.0" standalone="no"?>
<!DOCTYPE svg PUBLIC "-//W3C//DTD SVG 20010904//EN"
 "http://www.w3.org/TR/2001/REC-SVG-20010904/DTD/svg10.dtd">
<svg version="1.0" xmlns="http://www.w3.org/2000/svg"
 width="1280.000000pt" height="1280.000000pt" viewBox="0 0 1280.000000 1280.000000"
 preserveAspectRatio="xMidYMid meet">

<g transform="translate(0.000000,1280.000000) scale(0.100000,-0.100000)"
fill="#000000" stroke="none">
<path d="M0 6400 l0 -6400 6400 0 6400 0 0 6400 0 6400 -6400 0 -6400 0 0
-6400z m8215 5079 c263 -32 470 -197 573 -456 38 -95 58 -191 68 -318 7 -95 7
-95 -16 -95 -33 0 -181 -82 -270 -150 -212 -162 -353 -396 -433 -725 -18 -71
-35 -135 -39 -140 -4 -7 -49 -8 -125 -3 -65 3 -201 11 -303 17 -102 6 -231 11
-287 11 -122 0 -115 -7 -167 155 -128 399 -136 715 -25 1016 65 177 148 308
278 438 97 97 192 159 312 204 144 54 263 67 434 46z m-1350 -589 c131 -27
213 -63 194 -86 -6 -8 -75 -63 -153 -121 -230 -174 -370 -296 -571 -498 -200
-200 -283 -297 -391 -457 -36 -53 -73 -99 -82 -102 -9 -3 -136 -8 -282 -11
-820 -19 -1432 -59 -1771 -116 -136 -22 -169 -24 -169 -6 1 36 266 357 388
469 191 175 463 374 672 492 399 227 915 398 1340 445 52 6 111 13 130 15 19
2 159 3 310 1 239 -2 289 -5 385 -25z m2270 -242 c256 -213 480 -445 704 -728
87 -111 301 -443 301 -468 0 -6 3 -12 8 -14 8 -3 132 -250 132 -262 0 -4 9
-26 19 -49 94 -207 188 -509 240 -777 12 -58 26 -129 32 -157 43 -214 61 -683
35 -913 -22 -195 -65 -424 -100 -534 -8 -23 -28 -88 -46 -146 -79 -256 -192
-500 -350 -760 -19 -30 -36 -57 -40 -60 -11 -10 -60 -79 -60 -85 0 -9 -143
-196 -192 -250 -95 -106 -255 -262 -373 -363 -57 -48 -231 -182 -238 -182 -2
0 -42 -25 -88 -55 -46 -30 -90 -55 -96 -55 -7 0 -13 -4 -13 -9 0 -9 -199 -111
-216 -111 -5 0 -25 -8 -44 -18 -64 -34 -253 -95 -350 -113 -82 -16 -314 -16
-400 0 -188 35 -415 143 -605 288 -50 38 -107 79 -128 92 -75 46 -253 278
-341 446 -65 123 -116 280 -119 364 -2 73 15 112 98 221 59 78 119 161 204
286 41 60 109 156 150 214 41 58 99 140 128 182 l52 78 30 -43 c49 -72 157
-170 241 -218 189 -110 421 -127 660 -49 95 31 125 45 462 218 147 76 248 122
266 122 41 0 79 -46 88 -106 11 -77 -11 -327 -42 -469 -21 -97 -99 -301 -145
-381 -22 -36 -39 -68 -39 -71 0 -16 -161 -215 -245 -302 -112 -116 -108 -119
45 -38 164 87 308 191 398 287 79 84 107 116 189 215 49 61 112 142 138 180
26 39 67 97 90 130 62 88 158 283 216 441 70 192 129 366 129 381 0 7 -9 13
-21 13 -11 0 -17 5 -14 10 3 6 2 10 -3 10 -12 0 -35 120 -34 175 0 27 13 67
36 112 20 39 39 84 42 102 6 29 24 44 24 20 0 -11 88 -139 96 -139 4 0 -2 11
-46 89 -12 21 -15 75 -16 291 -1 341 -22 501 -103 775 -34 115 -102 309 -132
375 -112 242 -238 462 -315 543 -21 23 -23 31 -14 42 10 12 10 21 1 42 -16 37
-33 56 -121 133 -41 36 -113 105 -160 155 -47 49 -107 112 -134 140 l-49 50
-13 353 c-12 343 -21 428 -50 498 -26 62 -18 68 34 25 26 -22 119 -100 207
-173z m-305 -436 l0 -338 -25 -51 c-14 -28 -66 -100 -116 -159 -50 -60 -120
-152 -154 -204 -78 -117 -121 -167 -132 -157 -4 5 -11 61 -15 125 -4 64 -12
185 -17 267 -6 83 -11 204 -11 271 0 115 2 124 30 181 35 69 134 190 206 249
60 50 212 154 225 154 5 0 9 -134 9 -338z m-554 -619 c-3 -8 -22 -13 -46 -13
l-40 0 0 43 c0 54 24 156 53 227 l22 55 8 -149 c4 -83 5 -156 3 -163z m-2156
-53 c22 -7 20 -8 -15 -9 -22 -1 -164 -6 -315 -11 -340 -11 -481 -20 -474 -32
3 -4 -3 -11 -12 -15 -10 -4 -19 -2 -22 5 -5 17 -32 15 -32 -2 0 -9 25 -17 83
-25 108 -16 123 -19 180 -31 63 -13 152 -24 205 -24 23 -1 42 -4 42 -8 0 -21
72 8 92 37 5 7 8 7 8 -1 0 -12 -54 -87 -87 -120 -30 -30 -56 -44 -85 -45 -17
-1 -18 -3 -5 -6 9 -2 17 -8 17 -13 0 -5 -8 -9 -17 -9 -432 -15 -851 -9 -1293
20 -299 19 -875 79 -899 93 -20 13 -12 -10 15 -40 14 -16 44 -54 67 -84 36
-49 191 -233 332 -395 157 -180 434 -524 505 -625 13 -19 27 -37 30 -40 3 -3
47 -59 98 -125 50 -66 103 -133 116 -150 55 -66 365 -459 479 -609 67 -87 127
-164 133 -170 5 -6 43 -56 84 -111 41 -55 104 -140 141 -190 61 -83 251 -357
274 -397 6 -9 38 -63 72 -119 35 -56 60 -105 57 -108 -3 -3 -10 2 -15 12 -11
19 -39 24 -39 6 0 -19 -21 2 -94 99 -230 306 -330 441 -437 593 -63 89 -197
274 -371 511 -103 139 -242 324 -796 1055 -24 32 -59 76 -77 98 -48 58 -266
339 -329 424 -11 14 -70 87 -131 161 -127 155 -195 245 -195 259 0 5 43 9 97
10 112 0 297 16 433 36 191 28 653 62 1105 80 209 8 412 17 450 18 157 7 602
4 625 -3z m1286 -113 c3 -10 11 -16 17 -14 7 2 25 -2 41 -10 19 -10 80 -16
197 -20 94 -3 172 -10 175 -15 3 -4 30 -8 60 -8 31 0 65 -5 77 -11 16 -9 22
-9 25 0 5 14 82 15 82 1 0 -5 14 -10 31 -10 17 0 67 -9 111 -21 44 -11 87 -18
94 -15 8 3 14 1 14 -5 0 -6 5 -7 10 -4 6 3 10 -2 10 -13 0 -21 -48 -24 -591
-39 l-246 -6 -39 51 c-55 71 -144 199 -144 207 0 12 70 -51 76 -68z m1983 59
c10 -12 9 -20 -1 -38 -10 -18 -14 -120 -16 -451 l-3 -427 38 -44 c36 -41 131
-225 406 -785 102 -208 109 -226 103 -267 -13 -99 -48 -132 -363 -337 -317
-206 -341 -218 -419 -225 l-64 -5 -39 40 c-23 25 -54 78 -80 139 -24 55 -63
142 -88 194 -25 52 -60 129 -78 170 -18 41 -40 89 -49 105 -8 17 -49 100 -90
186 -42 89 -93 179 -118 210 -25 30 -53 67 -62 82 -17 25 -17 27 -1 27 9 0 42
-20 73 -44 103 -81 191 -105 251 -70 15 9 42 42 59 74 28 51 30 59 17 76 -37
49 -8 64 126 62 88 -1 131 21 175 86 18 28 40 78 49 110 9 39 28 76 52 105 21
25 44 54 51 63 10 13 13 83 13 305 -1 370 -9 517 -27 502 -12 -10 -191 -243
-344 -448 -36 -48 -120 -161 -188 -252 -68 -90 -131 -175 -140 -188 -9 -13
-22 -28 -27 -35 -6 -6 -34 -44 -64 -83 -29 -40 -56 -73 -60 -73 -3 0 -12 -14
-20 -31 -7 -17 -24 -34 -37 -39 -29 -11 -68 -49 -59 -58 4 -4 15 4 26 17 11
13 22 22 25 19 2 -3 -7 -16 -21 -29 -13 -13 -25 -31 -25 -39 0 -11 -3 -10 -11
4 -11 17 -12 17 -23 -5 -6 -13 -21 -25 -33 -27 -12 -2 -24 -10 -27 -19 -4 -11
-2 -14 9 -9 9 3 15 0 15 -10 0 -8 -4 -12 -10 -9 -5 3 -10 1 -10 -4 0 -6 5 -11
11 -11 5 0 7 -5 3 -11 -4 -8 -9 -7 -14 2 -6 9 -16 4 -35 -19 -15 -18 -31 -29
-37 -26 -6 4 -5 -2 1 -15 9 -16 9 -19 -1 -16 -7 3 -21 -10 -32 -27 -11 -19
-21 -28 -23 -20 -3 6 -9 9 -14 6 -6 -4 -6 -11 1 -19 8 -9 6 -14 -5 -19 -8 -3
-16 -5 -18 -4 -1 1 -20 -15 -41 -35 -22 -21 -41 -35 -44 -32 -3 2 15 30 39 61
24 31 49 64 54 72 6 8 17 25 27 36 48 60 89 112 96 121 15 20 275 365 393 520
67 88 140 183 163 210 36 43 141 177 282 361 22 29 73 88 112 131 40 42 72 81
72 85 0 12 -24 9 -45 -6 -11 -7 -45 -18 -75 -24 -105 -21 -396 -53 -454 -50
l-57 3 23 34 c22 33 38 42 98 55 22 4 25 10 24 41 l-2 36 87 -7 c47 -3 154
-15 236 -27 155 -21 230 -26 240 -16 3 4 -2 21 -12 38 -17 31 -17 32 1 46 25
19 40 19 55 1z m-5901 -251 c3 -10 0 -15 -7 -11 -6 4 -11 2 -11 -5 0 -10 -3
-10 -11 -2 -14 14 -3 46 14 41 6 -3 14 -13 15 -23z m229 0 c207 -37 609 -79
998 -105 233 -16 275 -21 275 -31 0 -5 -12 -9 -27 -9 -15 0 -40 -4 -57 -10
-17 -5 -87 -23 -156 -40 -306 -74 -348 -87 -662 -201 -76 -27 -90 -30 -105
-18 -9 8 -60 64 -113 124 -53 61 -136 154 -184 208 -96 107 -97 105 31 82z
m5353 -2 c0 -5 -20 -33 -45 -63 -25 -30 -97 -118 -159 -195 -62 -77 -122 -148
-134 -159 -38 -33 -209 -56 -692 -91 -457 -34 -1035 -55 -1515 -55 -416 0
-816 17 -774 33 13 5 49 7 79 4 30 -3 45 -3 33 0 -41 8 -23 23 64 53 29 11 54
40 33 40 -5 0 -7 7 -4 15 4 8 13 15 20 15 19 0 50 30 58 55 8 27 46 52 46 30
0 -24 29 -5 46 31 10 21 13 44 9 64 -6 28 -5 30 25 30 17 0 29 4 25 9 -3 5 3
12 12 14 11 3 8 5 -9 6 -16 0 -28 -3 -28 -9 0 -5 -19 -10 -42 -9 -33 0 -38 2
-23 9 13 6 -14 9 -79 9 -55 1 -97 3 -95 5 2 2 279 7 614 10 336 4 702 11 815
16 385 18 435 21 585 31 461 29 695 50 920 83 179 26 215 29 215 19z m-2902
-55 l3 -28 -240 0 c-202 0 -241 2 -241 14 0 8 7 22 16 30 14 14 46 16 237 14
l222 -3 3 -27z m-1878 -433 c248 -44 902 -86 1815 -116 336 -12 1124 -6 1465
10 263 13 523 21 482 15 -24 -4 -36 -13 -45 -32 -6 -15 -18 -38 -27 -52 -23
-35 -60 -129 -60 -151 0 -11 -4 -19 -9 -19 -6 0 -20 -18 -32 -40 -13 -22 -26
-40 -31 -40 -4 0 -8 -11 -8 -25 0 -14 -4 -25 -8 -25 -5 0 -9 -7 -9 -15 0 -8 3
-15 6 -15 3 0 6 -13 7 -29 1 -24 -2 -27 -19 -23 -12 3 -23 -1 -29 -12 -5 -9
-15 -16 -23 -16 -9 0 -12 -6 -9 -15 4 -10 0 -15 -14 -15 -21 0 -37 -25 -23
-35 5 -2 -1 -25 -12 -50 -15 -32 -23 -41 -30 -32 -6 8 -7 6 -3 -7 4 -11 -2
-33 -13 -51 -20 -35 -41 -118 -41 -165 0 -17 -4 -30 -10 -30 -5 0 -10 -9 -10
-19 0 -11 -4 -23 -10 -26 -17 -11 -12 -106 6 -120 22 -16 11 -65 -16 -72 -20
-5 -25 -19 -14 -47 5 -14 8 -14 30 1 13 8 24 21 24 27 0 7 14 25 30 41 17 16
30 35 30 42 0 7 4 13 8 13 5 0 21 18 38 40 16 22 44 57 62 78 19 20 40 51 48
67 7 17 31 49 54 73 22 24 40 47 40 52 0 6 9 10 19 10 11 0 21 5 23 10 2 6 13
12 26 13 26 2 28 10 7 31 -8 8 -15 17 -15 20 0 12 23 5 34 -9 10 -14 13 -13
28 4 10 12 13 23 8 26 -6 4 -10 13 -10 21 0 8 4 13 9 9 6 -3 14 3 20 12 5 10
21 18 35 18 25 1 25 1 8 -28 -9 -16 -27 -37 -39 -47 -13 -10 -23 -24 -23 -31
0 -8 -16 -32 -36 -54 -20 -22 -52 -65 -72 -95 -20 -30 -39 -57 -42 -60 -3 -3
-27 -34 -53 -70 -109 -148 -341 -457 -364 -485 -13 -16 -102 -135 -196 -264
-95 -128 -228 -301 -296 -384 -68 -83 -150 -188 -182 -233 -72 -102 -142 -165
-228 -206 -108 -53 -271 -51 -391 5 -98 46 -285 266 -253 298 8 8 28 -6 72
-50 127 -127 266 -173 455 -152 148 17 262 85 335 200 39 60 39 74 2 36 -52
-53 -66 -64 -94 -74 -37 -14 -44 -14 -44 4 0 8 6 15 14 15 24 0 13 20 -29 50
-22 16 -45 30 -50 30 -13 0 -45 36 -53 59 -6 19 -16 25 -30 19 -8 -5 -53 66
-48 75 2 4 1 7 -4 6 -21 -4 -33 2 -33 16 0 8 -9 24 -20 35 -11 11 -17 20 -13
20 4 0 2 5 -5 12 -7 7 -12 27 -12 45 0 18 -4 33 -10 33 -5 0 -14 17 -19 38 -6
21 -17 46 -25 57 -9 11 -16 30 -16 43 0 15 -6 22 -20 22 -11 0 -20 6 -20 14 0
8 -7 16 -15 19 -8 4 -21 23 -30 43 -17 41 -20 67 -5 44 13 -20 13 -4 0 21 -6
10 -15 19 -20 19 -15 0 -47 35 -55 59 -3 12 -10 21 -15 21 -5 0 -14 18 -20 40
-6 24 -17 40 -25 40 -8 0 -15 6 -15 14 0 8 -8 21 -18 28 -23 17 -106 183 -98
197 7 11 -24 81 -36 81 -4 0 -8 6 -8 13 0 6 -18 30 -40 51 -22 22 -40 46 -40
53 0 8 -4 11 -10 8 -5 -3 -10 -1 -10 5 0 6 -5 8 -12 4 -8 -5 -9 -2 -5 10 5 13
-1 24 -18 38 -14 11 -25 26 -25 34 0 8 -6 17 -12 19 -7 3 -14 21 -15 40 -3 35
-28 75 -49 75 -17 0 -84 69 -84 86 0 8 -4 12 -10 9 -5 -3 -10 -1 -10 5 0 6 -5
8 -12 4 -7 -5 -9 -2 -5 9 4 11 -1 17 -16 19 -15 2 -23 11 -25 28 -5 34 -17 47
-52 54 -17 3 -30 11 -30 19 0 12 -55 41 -72 38 -5 0 -7 5 -5 12 1 6 -4 11 -11
9 -8 -1 -11 1 -8 6 3 5 -11 24 -31 43 -20 19 -33 29 -29 22 3 -6 3 -14 -1 -16
-10 -5 -89 30 -85 37 6 15 1 36 -8 31 -5 -3 -10 -1 -10 5 0 6 -5 8 -12 4 -8
-5 -9 -2 -5 9 6 16 -8 23 -36 18 -4 0 -24 8 -44 19 -20 10 -40 17 -44 15 -4
-3 -18 6 -30 20 -26 27 -45 32 -51 13 -2 -6 -12 -9 -21 -5 -10 4 -14 12 -11
22 4 9 -1 17 -12 21 -11 4 -25 12 -32 17 -19 15 -242 22 -242 8 0 -6 -16 -26
-35 -45 -19 -20 -35 -40 -35 -46 0 -6 -4 -8 -10 -5 -5 3 -12 -7 -15 -22 -4
-15 -13 -46 -20 -68 -19 -55 -21 -96 -7 -122 32 -58 -2 -28 -93 82 -22 27 -56
67 -75 89 -20 23 -68 79 -107 126 -39 47 -79 94 -89 105 -49 52 -113 138 -109
144 5 9 131 -3 245 -24z m-1099 -87 c-14 -39 -14 -72 0 -43 7 15 8 8 4 -25 -3
-27 -2 -40 3 -32 12 19 38 -8 47 -47 3 -16 13 -32 21 -35 8 -3 14 -11 14 -19
0 -22 46 -110 83 -159 19 -25 38 -54 41 -66 4 -11 13 -23 21 -26 8 -3 15 -15
15 -26 0 -11 6 -20 13 -20 8 0 22 -18 32 -40 10 -22 22 -40 27 -40 4 0 8 -6 8
-13 0 -8 9 -22 19 -31 11 -10 22 -28 25 -41 4 -14 15 -29 25 -34 10 -6 31 -35
46 -66 16 -30 32 -55 37 -55 4 0 8 -6 8 -13 0 -8 9 -22 19 -31 11 -10 29 -38
40 -64 12 -26 31 -59 42 -74 12 -14 23 -37 24 -51 4 -38 16 -69 36 -97 11 -14
22 -51 25 -88 4 -34 11 -65 15 -68 12 -7 11 -112 -1 -195 -11 -74 -15 -395 -6
-449 4 -19 9 -78 12 -130 3 -52 10 -99 14 -105 5 -5 13 -32 18 -60 6 -27 17
-75 26 -105 9 -30 19 -71 22 -90 4 -19 19 -62 34 -95 16 -33 34 -80 41 -105 7
-25 18 -52 24 -60 7 -8 26 -44 44 -80 17 -36 40 -78 51 -95 11 -16 27 -43 36
-60 9 -16 33 -46 53 -67 65 -66 111 -116 111 -122 0 -7 89 -93 141 -136 23
-19 47 -40 53 -46 26 -25 136 -94 150 -94 9 0 16 -3 16 -8 0 -4 32 -18 71 -32
39 -13 77 -29 83 -35 15 -15 151 -56 204 -62 23 -3 42 -9 42 -13 0 -5 39 -11
88 -14 182 -13 307 -29 320 -43 7 -7 27 -13 43 -13 16 0 29 -4 29 -10 0 -5 7
-10 15 -10 21 0 92 -100 116 -165 11 -30 24 -55 28 -55 10 0 38 -89 51 -160 5
-30 21 -86 36 -125 14 -38 27 -79 27 -90 1 -11 9 -25 17 -32 20 -16 5 -16
-131 -3 -276 28 -655 128 -874 230 -22 10 -62 28 -90 40 -217 97 -462 249
-676 421 -125 100 -380 352 -455 451 -27 35 -54 69 -61 76 -66 68 -251 367
-328 528 -83 174 -97 206 -146 346 -120 344 -164 617 -163 1018 1 414 70 844
174 1075 10 22 26 64 36 93 11 30 20 46 22 37 2 -9 -1 -30 -7 -47z m1682 -285
c9 -9 17 -24 17 -35 0 -21 0 -21 -37 -7 -41 17 -63 18 -63 2 0 -17 -17 -17
-23 0 -5 14 10 48 27 60 15 10 57 -1 79 -20z m3507 3 c0 -2 -13 -20 -30 -41
-18 -23 -30 -32 -30 -22 0 9 12 28 27 42 28 25 33 28 33 21z m-86 -108 c-14
-23 -125 -158 -130 -158 -11 0 38 69 83 119 48 51 60 61 47 39z m-3467 -34
c-3 -3 -12 -4 -19 -1 -8 3 -5 6 6 6 11 1 17 -2 13 -5z m3443 -274 c0 -5 -5
-10 -11 -10 -5 0 -7 5 -4 10 3 6 8 10 11 10 2 0 4 -4 4 -10z m-4046 -292 c-4
-32 -3 -39 5 -28 9 12 11 9 11 -14 0 -26 51 -129 70 -141 4 -3 20 -28 34 -56
15 -28 53 -84 84 -125 31 -42 67 -90 80 -107 13 -17 30 -39 38 -48 8 -8 14
-23 14 -32 0 -9 4 -17 8 -17 5 0 15 -12 23 -27 8 -16 16 -30 19 -33 3 -3 11
-16 18 -30 7 -14 23 -43 35 -65 13 -22 43 -76 67 -120 23 -44 51 -89 61 -101
11 -11 19 -25 19 -31 0 -5 9 -18 20 -28 11 -10 20 -24 20 -32 0 -7 7 -16 15
-19 8 -4 15 -12 15 -19 0 -6 14 -31 30 -53 17 -23 30 -46 30 -52 0 -5 4 -10 8
-10 5 0 15 -12 23 -27 7 -16 24 -38 36 -50 12 -12 25 -34 29 -50 4 -15 14 -34
21 -42 8 -7 17 -26 20 -42 3 -16 9 -29 14 -29 5 0 9 -7 9 -15 0 -8 4 -15 9
-15 5 0 13 -9 16 -20 4 -11 17 -32 31 -47 13 -14 24 -33 25 -42 0 -9 9 -29 19
-46 38 -60 80 -139 80 -148 0 -6 7 -18 16 -28 8 -9 22 -41 29 -71 20 -77 39
-128 47 -128 12 0 9 -65 -3 -77 -7 -7 -3 -21 15 -48 14 -20 23 -41 20 -46 -3
-5 2 -9 12 -9 13 0 14 -3 4 -15 -10 -13 -9 -15 11 -15 16 0 20 -3 13 -10 -8
-8 -33 -6 -84 6 -263 59 -519 205 -734 417 -261 258 -411 566 -466 957 -33
232 -29 490 10 678 19 89 50 192 57 192 2 0 1 -19 -3 -42z m2668 -1563 c-12
-15 -19 -32 -16 -39 3 -8 -2 -16 -10 -19 -17 -7 -22 -27 -6 -27 12 0 41 55 33
64 -4 3 0 6 7 6 7 0 19 8 26 18 28 36 13 -7 -16 -46 -16 -23 -30 -44 -30 -46
0 -2 -22 -40 -49 -83 -58 -94 -113 -229 -141 -344 -34 -145 -41 -293 -54
-1171 l-5 -298 53 0 c29 0 59 -6 68 -12 15 -12 79 -160 163 -378 48 -125 86
-210 94 -210 6 0 50 89 197 400 43 91 82 171 87 178 7 9 52 12 163 12 l154 0
3 -257 c3 -330 -2 -818 -9 -861 l-5 -33 -137 3 -137 3 -8 150 c-4 83 -4 224
-1 314 6 175 -1 196 -30 89 -23 -84 -57 -175 -126 -338 -87 -204 -77 -188
-126 -196 -24 -3 -54 -4 -67 0 -26 6 -59 65 -87 155 -10 31 -43 128 -73 216
-30 88 -58 172 -61 188 -16 71 -21 3 -18 -278 l3 -306 -143 3 -143 3 -3 578
-2 577 72 0 c45 0 68 4 63 9 -10 10 -4 499 14 1146 12 412 15 430 98 555 56
83 106 151 130 177 6 7 28 40 48 74 21 33 39 58 42 55 3 -3 -4 -17 -15 -31z
m-797 -241 c9 -1 44 -32 79 -68 100 -102 103 -118 116 -526 12 -382 12 -945 0
-975 -7 -17 -9 -15 -9 12 -1 33 -16 52 -24 31 -4 -8 -8 -4 -12 10 -4 12 -11
22 -15 22 -4 0 -11 89 -14 198 -10 292 -35 802 -46 923 -12 124 -41 243 -77
314 -14 28 -29 61 -34 75 -9 24 -8 24 6 6 8 -11 22 -21 30 -22z m-3609 -1744
c72 -25 121 -60 181 -132 l51 -62 -20 -26 c-35 -44 -119 -130 -127 -130 -5 0
-19 10 -32 23 -66 64 -100 81 -160 82 -78 0 -113 -25 -117 -84 -5 -60 26 -87
238 -212 92 -54 158 -118 191 -184 20 -42 24 -65 24 -140 0 -76 -4 -98 -24
-138 -52 -101 -159 -170 -292 -189 -164 -23 -281 18 -399 137 l-65 65 18 33
c10 17 38 55 62 83 l45 51 45 -43 c80 -78 173 -107 246 -78 46 19 63 44 54 83
-8 36 -33 59 -182 165 -67 48 -138 106 -158 129 -68 79 -102 187 -91 291 23
224 272 358 512 276z m7816 -97 l3 -118 70 -5 70 -5 3 -112 3 -113 -74 0 -74
0 5 -355 5 -356 -149 3 -149 3 -7 45 c-3 25 -7 169 -8 320 -1 151 -4 293 -8
315 -7 39 -8 40 -54 43 -44 3 -48 5 -53 35 -3 18 -5 64 -3 102 l3 70 50 0 50
0 3 123 3 122 154 0 154 0 3 -117z m-5438 81 c3 -9 6 -55 6 -104 0 -117 1
-120 61 -120 l49 0 0 -94 0 -93 -31 -7 c-17 -3 -42 -6 -55 -6 l-24 0 0 -359
c0 -279 -3 -360 -12 -364 -19 -6 -262 4 -270 11 -4 4 -7 156 -9 337 -1 182 -4
340 -6 353 -4 17 -12 22 -38 22 -32 0 -34 2 -40 43 -4 24 -5 73 -3 108 l3 64
43 3 42 3 0 110 0 109 139 0 c117 0 140 -2 145 -16z m4499 -95 c144 -16 248
-68 319 -161 31 -40 63 -130 73 -203 14 -108 -69 -268 -175 -336 -49 -31 -49
-32 -32 -54 82 -106 192 -269 192 -285 0 -6 -63 -10 -155 -10 l-154 0 -42 58
c-37 50 -122 154 -155 189 -7 7 -14 9 -18 6 -3 -4 -6 -62 -6 -130 l0 -123
-149 0 -148 0 -6 63 c-5 45 -11 937 -7 1000 0 9 342 -1 463 -14z m-921 -69
c16 -41 42 -115 59 -165 32 -91 142 -383 159 -420 20 -43 138 -351 143 -372
l5 -23 -154 0 -153 0 -15 49 c-8 27 -21 63 -30 80 l-17 31 -201 -2 -201 -3
-29 -77 c-18 -44 -37 -78 -47 -80 -9 -2 -78 -2 -155 0 l-138 4 6 37 c3 21 15
60 25 87 22 54 94 252 190 524 34 96 79 220 100 275 21 55 41 108 45 118 5 16
21 17 193 15 l187 -3 28 -75z m-5101 -50 c129 -44 216 -128 250 -242 12 -41
32 -599 23 -651 l-6 -38 -131 3 -132 3 -5 28 -5 29 -40 -29 c-58 -42 -97 -53
-193 -53 -118 0 -156 14 -223 81 -69 69 -94 127 -86 202 22 206 226 336 446
283 36 -8 68 -13 73 -10 4 3 8 27 8 53 0 136 -154 159 -305 46 l-31 -23 -57
93 c-31 51 -57 97 -57 103 0 6 14 22 31 37 108 90 308 129 440 85z m822 5 c77
-16 165 -54 214 -91 58 -44 38 -99 -71 -195 -43 -38 -66 -48 -66 -30 0 19 -87
92 -122 102 -68 18 -130 -26 -113 -81 10 -30 57 -59 166 -100 168 -64 215
-101 252 -198 47 -119 -7 -250 -134 -328 l-64 -39 -140 0 -141 0 -76 37 c-46
23 -91 55 -117 83 l-41 45 61 74 61 75 64 -44 c73 -51 131 -69 188 -62 45 6
66 28 66 67 0 36 -14 46 -158 120 -142 73 -196 117 -236 190 -94 172 73 381
309 389 17 0 61 -6 98 -14z m1326 0 c123 -29 205 -93 250 -196 31 -68 41 -191
41 -476 l0 -263 -134 0 -134 0 -11 31 -10 30 -38 -29 c-54 -42 -103 -55 -187
-50 -265 18 -384 299 -202 477 86 84 187 112 330 92 89 -13 96 -10 96 47 0 48
-25 91 -58 97 -15 4 -35 8 -45 10 -32 6 -131 -25 -174 -55 l-42 -29 -65 92
-64 92 21 23 c12 13 58 41 102 62 122 59 211 71 324 45z m801 -409 l0 -115
-187 6 c-104 3 -189 6 -190 7 -1 1 -3 46 -4 101 l-2 100 154 5 c85 3 171 7
192 8 l37 2 0 -114z m385 -575 c3 -14 17 -62 31 -106 32 -100 85 -170 184
-247 89 -69 168 -108 297 -148 54 -17 132 -42 174 -55 85 -26 300 -79 492
-121 77 -16 126 -31 124 -38 -5 -16 -265 -32 -427 -26 l-35 1 25 14 c25 14 24
14 -18 15 -28 0 -45 5 -48 15 -5 13 -76 33 -97 27 -4 -1 -20 4 -36 12 -26 14
-220 56 -319 70 -40 6 -123 29 -217 62 -22 7 -51 15 -65 18 -88 16 -209 55
-233 75 -8 6 -19 11 -23 9 -14 -3 -54 12 -54 21 0 5 -17 11 -39 15 -21 3 -44
13 -51 21 -7 8 -19 15 -26 15 -8 0 -14 5 -14 10 0 6 -9 10 -21 10 -13 0 -18 4
-13 12 5 7 2 9 -9 5 -10 -4 -14 -2 -11 6 3 9 -14 12 -65 12 l-70 0 23 30 c13
17 30 31 39 33 8 2 48 -21 87 -50 l73 -53 96 0 c53 0 145 4 204 9 l108 9 -25
26 c-58 61 -102 224 -82 305 8 32 34 25 41 -13z m-1004 -580 c-6 -11 -25 -22
-43 -26 -18 -3 -69 -15 -113 -25 -249 -58 -454 -91 -574 -93 -121 -2 -130 14
-19 37 46 10 133 29 193 42 363 78 367 78 478 82 85 3 88 2 78 -17z m-4618
-804 c22 -4 22 -4 1 -6 -28 -1 -46 21 -37 45 7 16 8 15 11 -8 2 -18 10 -28 25
-31z m83 6 c-10 -26 -18 -8 -9 23 5 21 8 24 11 11 2 -10 1 -25 -2 -34z m79 10
l7 -28 9 24 c5 13 12 21 15 18 3 -3 -1 -18 -10 -34 -15 -28 -16 -28 -22 -5 -7
23 -24 31 -24 10 0 -6 -2 -9 -5 -7 -6 7 6 49 15 49 4 0 11 -12 15 -27z m-255
8 c0 -5 7 -17 16 -25 8 -9 12 -16 7 -16 -12 0 -35 16 -36 26 -1 5 -5 8 -9 7
-5 -2 -8 2 -8 7 0 6 7 10 15 10 8 0 15 -4 15 -9z m115 -1 c3 -5 1 -10 -4 -10
-6 0 -11 5 -11 10 0 6 2 10 4 10 3 0 8 -4 11 -10z m-195 -53 c11 -21 11 -21
-4 -3 -14 18 -21 15 -17 -6 0 -5 -4 -8 -10 -8 -6 0 -8 7 -5 16 3 9 6 20 6 25
0 15 19 0 30 -24z m57 11 c-3 -8 -6 -5 -6 6 -1 11 2 17 5 13 3 -3 4 -12 1 -19z
m375 15 c-10 -4 -10 -8 -1 -19 10 -12 9 -13 -5 -8 -10 4 -16 1 -16 -9 0 -8 6
-18 13 -20 9 -4 9 -6 -1 -6 -7 -1 -15 5 -18 13 -7 18 13 56 29 55 9 0 8 -2 -1
-6z m-485 -55 c3 -22 2 -22 -12 2 -17 30 -19 48 -3 32 6 -6 13 -22 15 -34z
m590 -18 c3 -10 2 -11 -4 -4 -4 6 -15 14 -23 17 -11 5 -9 6 4 4 11 -1 21 -9
23 -17z m-637 -22 c0 -6 -7 -5 -15 2 -8 7 -15 17 -15 22 0 6 7 5 15 -2 8 -7
15 -17 15 -22z m591 13 c-19 -13 4 -24 32 -15 19 6 20 5 8 -10 -17 -20 -25
-20 -45 0 -17 16 -13 34 7 34 8 0 8 -3 -2 -9z m-666 -119 c-6 -7 -45 19 -45
29 0 5 11 2 24 -8 13 -10 23 -19 21 -21z m449 13 c29 -27 30 -30 15 -73 -15
-44 -58 -60 -98 -36 -50 29 -51 87 -3 117 37 23 55 21 86 -8z m345 12 c-8 -7
-18 -21 -22 -31 -4 -10 -10 -16 -14 -13 -8 9 25 57 40 57 8 -1 7 -5 -4 -13z
m13 -39 c-19 -19 -14 -30 11 -23 17 5 19 4 7 -4 -8 -6 -23 -11 -32 -11 -20 0
-24 15 -8 25 6 4 8 11 5 16 -4 5 2 9 11 9 14 0 15 -3 6 -12z m-878 -33 c-4 -8
-1 -15 5 -15 6 0 11 5 11 10 0 6 8 10 18 10 16 -1 16 -1 0 -14 -13 -10 -15
-15 -6 -24 7 -7 8 -12 2 -12 -6 0 -21 11 -33 24 -21 23 -21 25 6 35 1 1 0 -6
-3 -14z m681 -45 c3 -5 15 -44 26 -86 27 -105 21 -111 -88 -77 -45 14 -84 32
-87 38 -5 14 112 135 131 135 6 0 15 -4 18 -10z m235 -10 c-8 -5 -22 -10 -30
-10 -13 0 -13 1 0 10 8 5 22 10 30 10 13 0 13 -1 0 -10z m-517 -103 c25 -51
34 -61 81 -81 30 -13 57 -29 61 -35 11 -18 -12 -38 -67 -58 -35 -12 -53 -25
-60 -43 -44 -119 -58 -124 -103 -36 -24 47 -39 64 -70 79 -66 31 -70 34 -70
48 0 13 66 52 105 62 10 2 25 26 35 53 34 92 47 94 88 11z m550 27 c4 -23 3
-24 -10 -11 -9 8 -12 20 -9 26 10 16 13 14 19 -15z m-943 -10 c0 -2 -11 -4
-25 -4 -14 0 -25 4 -25 9 0 4 11 6 25 3 14 -2 25 -6 25 -8z m907 10 c-3 -3
-12 -4 -19 -1 -8 3 -5 6 6 6 11 1 17 -2 13 -5z m-933 -39 c4 -11 -2 -15 -22
-14 -17 1 -20 3 -9 6 9 2 17 9 17 14 0 14 7 11 14 -6z m966 -43 c-8 -3 -18
-10 -22 -16 -5 -8 -8 -7 -8 2 0 6 -7 12 -15 12 -8 0 -15 4 -15 8 0 4 17 6 38
3 20 -2 30 -6 22 -9z m-960 -45 l25 -4 -27 -2 c-14 0 -28 -7 -31 -13 -2 -7 -6
-1 -9 15 -4 19 -2 25 6 18 6 -5 22 -11 36 -14z m948 6 c-10 -2 -26 -2 -35 0
-10 3 -2 5 17 5 19 0 27 -2 18 -5z m-919 -77 c-2 -2 -15 -7 -29 -10 l-25 -7
25 15 c21 12 42 14 29 2z m866 -26 c3 -5 2 -10 -4 -10 -5 0 -13 5 -16 10 -3 6
-2 10 4 10 5 0 13 -4 16 -10z m-5 -30 c0 -5 -7 -10 -16 -10 -8 0 -12 5 -9 10
3 6 10 10 16 10 5 0 9 -4 9 -10z m34 1 c3 -5 -1 -11 -9 -14 -9 -4 -12 -1 -8 9
6 16 10 17 17 5z m-864 -10 c0 -6 -5 -13 -10 -16 -6 -4 -8 -11 -5 -16 4 -5 -2
-9 -11 -9 -16 0 -15 2 2 21 l19 22 -30 -7 c-22 -5 -26 -4 -15 4 19 12 50 13
50 1z m6 -57 c-10 -14 -20 -23 -24 -19 -4 3 -2 9 4 13 6 4 14 16 17 26 4 10
10 16 14 13 3 -4 -2 -18 -11 -33z m800 2 c10 -8 17 -17 14 -19 -3 -3 -16 3
-29 14 -27 22 -15 26 15 5z m-682 -91 c3 -8 1 -17 -5 -20 -5 -4 -8 -1 -7 7 2
8 -7 13 -25 13 -25 -1 -27 1 -12 11 19 14 41 9 49 -11z m606 -27 c0 -6 -7 -5
-15 2 -8 7 -15 17 -15 22 0 6 7 5 15 -2 8 -7 15 -17 15 -22z m-50 -52 c0 -19
-24 14 -27 36 -3 22 -2 22 12 -2 8 -14 14 -29 15 -34z m-482 23 c1 -8 -4 -23
-11 -33 -11 -16 -17 -17 -33 -7 -18 11 -17 12 4 6 26 -8 29 2 5 22 -17 13 -16
14 5 8 22 -6 32 9 12 18 -6 3 -5 4 2 3 7 -1 14 -9 16 -17z m432 -12 c11 17 11
17 6 0 -3 -10 -6 -23 -6 -28 0 -15 -19 0 -30 24 -10 20 -10 21 4 4 14 -18 15
-18 26 0z m-360 -33 c0 -8 5 -14 10 -14 6 0 10 5 10 12 0 6 2 9 5 7 6 -7 -6
-49 -15 -49 -4 0 -11 12 -15 28 l-7 27 -9 -24 c-5 -13 -12 -22 -15 -19 -2 3 1
17 7 31 12 27 29 27 29 1z m277 4 c-3 -8 -6 -5 -6 6 -1 11 2 17 5 13 3 -3 4
-12 1 -19z m-20 -11 c-1 -7 4 -11 11 -9 6 1 12 -2 12 -8 0 -16 -22 -12 -36 8
-18 23 -17 33 1 26 8 -3 13 -11 12 -17z m-176 -28 l-10 -24 0 26 c-1 14 2 29
6 33 12 12 14 -9 4 -35z m107 29 c7 -7 12 -15 12 -19 0 -12 -30 -39 -43 -39
-7 0 -4 5 6 11 25 15 22 47 -5 52 -21 4 -21 4 -2 6 11 0 25 -4 32 -11z"/>
<path d="M9110 4870 c-9 -6 -10 -10 -3 -10 6 0 15 5 18 10 8 12 4 12 -15 0z"/>
<path d="M8568 4603 c7 -3 16 -2 19 1 4 3 -2 6 -13 5 -11 0 -14 -3 -6 -6z"/>
<path d="M4870 9480 c-253 -7 -410 -24 -438 -47 -15 -13 7 -14 168 -8 102 3
226 12 275 20 50 9 125 18 168 22 42 3 77 10 77 14 0 5 -3 8 -7 7 -5 -1 -114
-4 -243 -8z"/>
<path d="M5163 9463 c9 -2 23 -2 30 0 6 3 -1 5 -18 5 -16 0 -22 -2 -12 -5z"/>
<path d="M9346 8458 c-21 -30 -20 -61 3 -82 42 -38 81 -1 65 61 -11 46 -43 57
-68 21z"/>
<path d="M8415 8209 c-4 -6 -5 -13 -2 -16 7 -7 27 6 27 18 0 12 -17 12 -25 -2z"/>
<path d="M8375 8190 c-3 -5 -1 -10 4 -10 6 0 11 5 11 10 0 6 -2 10 -4 10 -3 0
-8 -4 -11 -10z"/>
<path d="M8924 8091 c-35 -16 -43 -25 -48 -56 -9 -47 8 -99 41 -125 62 -49
183 2 183 77 0 27 -41 89 -70 106 -36 22 -55 21 -106 -2z"/>
<path d="M9388 7961 c-54 -34 -88 -77 -118 -147 l-22 -52 27 -83 c24 -77 25
-89 15 -143 -6 -33 -19 -79 -29 -104 l-17 -44 -73 84 c-79 90 -111 143 -111
183 0 29 -2 30 -40 10 -35 -18 -35 -11 -15 -215 22 -226 26 -240 71 -240 29 0
29 6 8 147 -8 58 -13 110 -11 116 2 7 25 -22 52 -63 59 -92 83 -120 105 -120
31 0 70 51 91 122 22 70 33 78 44 30 8 -38 42 -92 57 -92 7 0 19 4 27 9 19 12
-8 98 -76 241 -52 110 -54 117 -43 154 18 60 92 127 170 152 72 24 85 48 40
71 -43 22 -102 16 -152 -16z"/>
<path d="M9565 7700 c-40 -13 -72 -32 -94 -54 -34 -35 -34 -36 -16 -56 25 -28
49 -25 133 16 56 28 76 34 85 25 25 -25 -38 -78 -126 -107 -65 -21 -71 -26
-63 -59 6 -23 11 -26 34 -20 48 11 136 56 164 82 40 38 52 75 39 116 -23 70
-67 86 -156 57z"/>
<path d="M7978 8643 c7 -3 16 -2 19 1 4 3 -2 6 -13 5 -11 0 -14 -3 -6 -6z"/>
<path d="M8086 8044 c-5 -14 -4 -15 9 -4 17 14 19 20 6 20 -5 0 -12 -7 -15
-16z"/>
<path d="M9217 3773 c-4 -3 -7 -75 -7 -160 l0 -153 23 0 c36 0 119 31 154 57
91 69 81 193 -19 242 -43 20 -136 29 -151 14z"/>
<path d="M8217 3713 c-3 -5 -12 -35 -21 -68 -10 -33 -31 -104 -48 -158 -18
-56 -27 -102 -22 -106 5 -5 55 -11 112 -14 94 -5 102 -4 102 13 0 10 -18 69
-39 132 -78 224 -75 217 -84 201z"/>
<path d="M3150 3334 c-56 -24 -80 -52 -80 -95 0 -53 35 -79 107 -79 58 0 87
11 116 43 40 46 25 102 -34 133 -35 18 -64 17 -109 -2z"/>
<path d="M5305 3338 c-73 -40 -87 -98 -34 -142 31 -26 91 -34 145 -20 39 10
66 82 48 129 -15 38 -113 59 -159 33z"/>
<path d="M6822 2520 c10 -32 168 -107 262 -124 54 -10 44 0 -18 18 -68 20
-179 69 -218 98 -19 13 -29 16 -26 8z"/>
</g>
</svg>
